<?xml version="1.0" encoding="UTF-8" standalone="no"?>
<svg
   id="Layer_1"
   data-name="Layer 1"
   viewBox="0 0 400 400"
   version="1.1"
   sodipodi:docname="logo.svg"
   width="400"
   height="400"
   inkscape:version="1.3.2 (091e20e, 2023-11-25)"
   xmlns:inkscape="http://www.inkscape.org/namespaces/inkscape"
   xmlns:sodipodi="http://sodipodi.sourceforge.net/DTD/sodipodi-0.dtd"
   xmlns="http://www.w3.org/2000/svg"
   xmlns:svg="http://www.w3.org/2000/svg">
  <sodipodi:namedview
     id="namedview96"
     pagecolor="#ffffff"
     bordercolor="#999999"
     borderopacity="1"
     inkscape:showpageshadow="2"
     inkscape:pageopacity="0"
     inkscape:pagecheckerboard="0"
     inkscape:deskcolor="#d1d1d1"
     inkscape:zoom="0.32502611"
     inkscape:cx="909.15772"
     inkscape:cy="698.40542"
     inkscape:window-width="1712"
     inkscape:window-height="1041"
     inkscape:window-x="0"
     inkscape:window-y="43"
     inkscape:window-maximized="1"
     inkscape:current-layer="Layer_1" />
  <defs
     id="defs2">
    <style
       id="style1">
      .cls-1 {
        clip-path: url(#clippath-1);
      }

      .cls-1, .cls-2, .cls-3, .cls-4 {
        fill: none;
      }

      .cls-5 {
        fill: #0af;
      }

      .cls-6 {
        fill: #0068ff;
      }

      .cls-7 {
        fill: #4f46e5;
      }

      .cls-8 {
        fill: #4dffa6;
      }

      .cls-2, .cls-4 {
        stroke: #4d4d4d;
        stroke-miterlimit: 10;
      }

      .cls-3 {
        clip-path: url(#clippath);
      }

      .cls-4 {
        stroke-width: 1px;
      }
    </style>
    <clipPath
       id="clippath">
      <path
         class="cls-8"
         d="m 1031.91,370.3 c 0,74.83 -56.5,123.24 -126.45,123.24 -78.19,0 -137.29,-58.34 -137.29,-128.58 0,-70.24 59.25,-129.35 135.61,-129.35 31.31,0.46 67.5,13.74 87.81,32.53 l -36.19,49.63 c -13.74,-12.83 -33.44,-21.07 -51.62,-21.07 -36.65,0 -68.87,30.08 -68.87,68.11 0,34.51 27.64,68.11 73.15,68.11 29.78,0 51.01,-14.36 51.92,-37.87 h -56.35 v -48.72 h 126.29 c 1.22,8.25 1.99,16.19 1.99,23.98 z"
         id="path1" />
    </clipPath>
    <clipPath
       id="clippath-1">
      <path
         class="cls-8"
         d="m 1040.99,364.96 c 0,-73.91 58.64,-129.96 135.15,-129.96 76.51,0 135.15,56.05 135.15,129.96 0,73.91 -58.64,129.04 -135.3,129.04 -76.66,0 -135,-55.74 -135,-129.04 z m 204.18,-0.46 c 0,-38.03 -29.93,-67.35 -69.03,-67.35 -39.1,0 -69.02,29.32 -69.02,67.35 0,38.03 29.93,67.04 69.02,67.04 39.09,0 69.03,-29.17 69.03,-67.04 z"
         id="path2" />
    </clipPath>
  </defs>
  <g
     id="g97"
     transform="translate(5,-0.5)">
    <rect
       width="400"
       height="400"
       fill="#f8fafc"
       id="background" />
    <!-- Shadow -->
    <g
       id="g99"
       transform="translate(370,205) scale(2.5) translate(-650,-140)">
      <path
         fill="#64748b"
         opacity="0.3"
         d="m 610.58,109.89 c 0.61,-0.61 0.51,-1.66 0.16,-2.36 -0.69,-1.38 -0.93,-2.33 -2.04,-3.39 -0.96,-0.92 -2.64,-1.29 -3.77,-2.04 0.04,0 -0.19,-0.3 -0.36,-0.38 -0.34,-0.34 -0.7,-0.62 -1.08,-0.79 -0.88,-0.41 -3.51,-0.47 -3.54,-0.45 -0.8,0.4 -2.36,1.37 -2.48,1.4 -0.12,0.17 -0.26,0.33 -0.4,0.48 0,0 -1.11,1.32 -1.97,2.25 -1.59,1.71 -4.42,1.89 -6.57,2.14 -4.31,0.5 -7.9,3.09 -10.4,6.53 -2.09,1.73 -3.98,3.79 -5.65,5.37 -2.45,2.31 -5.17,4.31 -7.55,6.74 -2.54,2.59 -5.65,4.87 -7.8,7.81 -1.8,2.47 -3.21,4.43 -3.82,7.49 -0.33,1.66 -1.05,2.99 0.49,4.13 2.46,1.81 4.74,3.82 7.35,5.44 0.39,0.24 0.85,0.47 1.35,0.69 -1.3,0.67 -2.52,1.54 -3.58,2.42 -3.09,2.55 -4.47,6.41 -7.76,8.66 -1.59,1.09 -4.63,1.74 -4.56,4.27 0.02,0.7 -0.14,1.72 0.44,2.27 0.65,0.62 1.6,1.13 2.12,1.82 0.39,0.52 0.6,1.21 0.93,1.77 0.64,1.09 1.84,1.9 2.72,2.78 0.78,0.78 1.55,2 2.69,2.31 1.91,0.51 4.35,0.53 6.03,-0.75 1.31,-0.99 -1.27,-3.17 -1.87,-3.71 -1.21,-1.09 -2.83,-1.82 -4.1,-2.85 -1.36,-1.09 -0.9,-3.08 -0.29,-4.92 0.22,0 0.43,0 0.63,-0.03 1.09,-0.14 2.32,-0.89 3.29,-1.3 2.03,-0.85 4.14,-1.53 6.08,-2.57 2.76,-1.49 5.67,-2.8 8.47,-4.28 -0.25,1.29 -0.42,2.57 -0.64,3.63 -0.6,2.98 1.8,5.09 1.79,7.97 0,1.89 -1.31,5.66 0.13,7.24 0.81,0.9 1.63,0.9 2.8,1.11 1.31,0.24 2.53,0.82 3.82,1.1 2.58,0.56 4.99,2.32 7.72,1.94 0.68,-0.09 1.62,-1.01 2.3,-1.29 0.42,-0.17 1.82,-0.82 1.91,-1.44 0.23,-1.63 -3.42,-1.84 -4.55,-2.2 -2.08,-0.68 -3.89,-1.65 -5.64,-2.97 -0.47,-0.36 -0.89,-0.76 -1.29,-1.19 0.07,-1.22 0.34,-2.48 0.49,-3.2 0.37,-1.8 0.5,-3.62 0.83,-5.42 0.21,-1.14 0.23,-2.24 0.23,-3.39 0,-2.26 0.25,-4.31 0.62,-6.54 0.38,-2.3 0.12,-4.69 -1.41,-6.5 -0.96,-1.14 -2.16,-2.21 -3.37,-3.08 -0.06,-0.04 -0.12,-0.09 -0.18,-0.13 1.22,-0.57 2.38,-1.32 3.57,-2.35 0.34,-0.3 0.67,-0.62 0.99,-0.96 0.88,2.05 2.15,4 2.85,6.06 0.35,1.03 0.71,2.01 1.12,2.95 -0.16,2.02 -0.36,4.02 -0.41,6.05 -0.06,2.07 0.57,4.15 0.71,6.21 0.06,0.95 0.04,1.85 0.12,2.73 -0.8,1.36 -1.47,2.47 -1.48,4.31 0,1.11 -0.02,2.83 1.26,3.21 0.06,0.02 0.12,0 0.17,-0.04 0.6,-0.59 1.61,-2.42 2.59,0.39 0.17,0.49 0.27,1.04 -0.3,0.89 -0.43,-0.11 -1.15,-0.04 -1.58,0.12 -0.07,0.03 -0.1,0.07 -0.11,0.14 -0.16,1.52 1.29,1.55 2.4,1.43 0.62,-0.06 1.24,-0.13 1.85,-0.27 0.62,-0.14 0.74,-1.03 1.28,-1.15 3.33,-0.73 3.25,-4.49 1.49,-6.74 0.3,-0.9 0.39,-1.84 0.39,-3.01 0,-0.91 -0.14,-1.81 -0.14,-2.72 0.84,1.89 1.92,3.69 3.15,5.28 -0.1,0.48 -0.18,0.97 -0.23,1.47 -0.19,2.06 0.6,4.17 0.59,6.25 0,0.71 -0.12,1.67 0.77,1.92 0.21,0.06 0.71,-0.08 0.95,-0.13 0.78,-0.15 1.68,0.47 2.47,0.23 0.79,-0.24 0.59,-0.11 1.15,-0.74 1.15,-1.29 0.8,-0.56 1.99,-1.01 1.1,-0.42 1.37,-0.96 1.45,-2.13 0.14,-2.22 -1.59,-4.44 -3.34,-6.07 -0.03,-2.97 0.13,-6.23 -1.16,-8.61 -0.69,-1.28 -1.35,-2.46 -2.27,-3.52 0.43,-3.68 0.08,-7.52 -1.56,-10.69 -1.41,-2.72 -2.12,-5.99 -2.92,-8.93 -0.3,-1.11 -0.74,-2.3 -1.21,-3.35 0.37,-0.71 0.78,-1.39 1.26,-2.01 1.09,-1.4 2.48,-2.53 3.69,-3.82 0.85,-0.91 2.06,-1.83 3.07,-2.85 0.66,0.08 1.31,0.06 2.04,0 0.93,-0.08 1.6,-0.87 1.85,-1.75 1.2,0.02 2.5,-0.72 2.66,-2.04 0.09,-0.73 -0.19,-1.87 -0.77,-2.58 0.12,-0.26 0.18,-0.55 0.1,-0.81 -0.22,-0.75 -0.75,-1.34 -1.24,-1.95 0.89,-0.67 1.21,-1.22 2.01,-2.02 z"
         id="shadow" />
    </g>
    <!-- Main gorilla -->
    <g
       id="g98"
       transform="translate(365,200) scale(2.5) translate(-650,-140)">
      <path
         class="cls-7"
         d="m 610.58,109.89 c 0.61,-0.61 0.51,-1.66 0.16,-2.36 -0.69,-1.38 -0.93,-2.33 -2.04,-3.39 -0.96,-0.92 -2.64,-1.29 -3.77,-2.04 0.04,0 -0.19,-0.3 -0.36,-0.38 -0.34,-0.34 -0.7,-0.62 -1.08,-0.79 -0.88,-0.41 -3.51,-0.47 -3.54,-0.45 -0.8,0.4 -2.36,1.37 -2.48,1.4 -0.12,0.17 -0.26,0.33 -0.4,0.48 0,0 -1.11,1.32 -1.97,2.25 -1.59,1.71 -4.42,1.89 -6.57,2.14 -4.31,0.5 -7.9,3.09 -10.4,6.53 -2.09,1.73 -3.98,3.79 -5.65,5.37 -2.45,2.31 -5.17,4.31 -7.55,6.74 -2.54,2.59 -5.65,4.87 -7.8,7.81 -1.8,2.47 -3.21,4.43 -3.82,7.49 -0.33,1.66 -1.05,2.99 0.49,4.13 2.46,1.81 4.74,3.82 7.35,5.44 0.39,0.24 0.85,0.47 1.35,0.69 -1.3,0.67 -2.52,1.54 -3.58,2.42 -3.09,2.55 -4.47,6.41 -7.76,8.66 -1.59,1.09 -4.63,1.74 -4.56,4.27 0.02,0.7 -0.14,1.72 0.44,2.27 0.65,0.62 1.6,1.13 2.12,1.82 0.39,0.52 0.6,1.21 0.93,1.77 0.64,1.09 1.84,1.9 2.72,2.78 0.78,0.78 1.55,2 2.69,2.31 1.91,0.51 4.35,0.53 6.03,-0.75 1.31,-0.99 -1.27,-3.17 -1.87,-3.71 -1.21,-1.09 -2.83,-1.82 -4.1,-2.85 -1.36,-1.09 -0.9,-3.08 -0.29,-4.92 0.22,0 0.43,0 0.63,-0.03 1.09,-0.14 2.32,-0.89 3.29,-1.3 2.03,-0.85 4.14,-1.53 6.08,-2.57 2.76,-1.49 5.67,-2.8 8.47,-4.28 -0.25,1.29 -0.42,2.57 -0.64,3.63 -0.6,2.98 1.8,5.09 1.79,7.97 0,1.89 -1.31,5.66 0.13,7.24 0.81,0.9 1.63,0.9 2.8,1.11 1.31,0.24 2.53,0.82 3.82,1.1 2.58,0.56 4.99,2.32 7.72,1.94 0.68,-0.09 1.62,-1.01 2.3,-1.29 0.42,-0.17 1.82,-0.82 1.91,-1.44 0.23,-1.63 -3.42,-1.84 -4.55,-2.2 -2.08,-0.68 -3.89,-1.65 -5.64,-2.97 -0.47,-0.36 -0.89,-0.76 -1.29,-1.19 0.07,-1.22 0.34,-2.48 0.49,-3.2 0.37,-1.8 0.5,-3.62 0.83,-5.42 0.21,-1.14 0.23,-2.24 0.23,-3.39 0,-2.26 0.25,-4.31 0.62,-6.54 0.38,-2.3 0.12,-4.69 -1.41,-6.5 -0.96,-1.14 -2.16,-2.21 -3.37,-3.08 -0.06,-0.04 -0.12,-0.09 -0.18,-0.13 1.22,-0.57 2.38,-1.32 3.57,-2.35 0.34,-0.3 0.67,-0.62 0.99,-0.96 0.88,2.05 2.15,4 2.85,6.06 0.35,1.03 0.71,2.01 1.12,2.95 -0.16,2.02 -0.36,4.02 -0.41,6.05 -0.06,2.07 0.57,4.15 0.71,6.21 0.06,0.95 0.04,1.85 0.12,2.73 -0.8,1.36 -1.47,2.47 -1.48,4.31 0,1.11 -0.02,2.83 1.26,3.21 0.06,0.02 0.12,0 0.17,-0.04 0.6,-0.59 1.61,-2.42 2.59,0.39 0.17,0.49 0.27,1.04 -0.3,0.89 -0.43,-0.11 -1.15,-0.04 -1.58,0.12 -0.07,0.03 -0.1,0.07 -0.11,0.14 -0.16,1.52 1.29,1.55 2.4,1.43 0.62,-0.06 1.24,-0.13 1.85,-0.27 0.62,-0.14 0.74,-1.03 1.28,-1.15 3.33,-0.73 3.25,-4.49 1.49,-6.74 0.3,-0.9 0.39,-1.84 0.39,-3.01 0,-0.91 -0.14,-1.81 -0.14,-2.72 0.84,1.89 1.92,3.69 3.15,5.28 -0.1,0.48 -0.18,0.97 -0.23,1.47 -0.19,2.06 0.6,4.17 0.59,6.25 0,0.71 -0.12,1.67 0.77,1.92 0.21,0.06 0.71,-0.08 0.95,-0.13 0.78,-0.15 1.68,0.47 2.47,0.23 0.79,-0.24 0.59,-0.11 1.15,-0.74 1.15,-1.29 0.8,-0.56 1.99,-1.01 1.1,-0.42 1.37,-0.96 1.45,-2.13 0.14,-2.22 -1.59,-4.44 -3.34,-6.07 -0.03,-2.97 0.13,-6.23 -1.16,-8.61 -0.69,-1.28 -1.35,-2.46 -2.27,-3.52 0.43,-3.68 0.08,-7.52 -1.56,-10.69 -1.41,-2.72 -2.12,-5.99 -2.92,-8.93 -0.3,-1.11 -0.74,-2.3 -1.21,-3.35 0.37,-0.71 0.78,-1.39 1.26,-2.01 1.09,-1.4 2.48,-2.53 3.69,-3.82 0.85,-0.91 2.06,-1.83 3.07,-2.85 0.66,0.08 1.31,0.06 2.04,0 0.93,-0.08 1.6,-0.87 1.85,-1.75 1.2,0.02 2.5,-0.72 2.66,-2.04 0.09,-0.73 -0.19,-1.87 -0.77,-2.58 0.12,-0.26 0.18,-0.55 0.1,-0.81 -0.22,-0.75 -0.75,-1.34 -1.24,-1.95 0.89,-0.67 1.21,-1.22 2.01,-2.02 z"
         id="path96" />
    </g>
  </g>
</svg>
