<?xml version="1.0" encoding="UTF-8"?>
<svg id="Layer_1" data-name="Layer 1" xmlns="http://www.w3.org/2000/svg" xmlns:xlink="http://www.w3.org/1999/xlink" viewBox="0 0 1366 768">
  <defs>
    <style>
      .cls-1 {
        clip-path: url(#clippath-1);
      }

      .cls-1, .cls-2, .cls-3, .cls-4 {
        fill: none;
      }

      .cls-5 {
        fill: #0af;
      }

      .cls-6 {
        fill: #0068ff;
      }

      .cls-7 {
        fill: #1300c6;
      }

      .cls-8 {
        fill: #4dffa6;
      }

      .cls-2, .cls-4 {
        stroke: #4d4d4d;
        stroke-miterlimit: 10;
      }

      .cls-3 {
        clip-path: url(#clippath);
      }

      .cls-4 {
        stroke-width: 1px;
      }
    </style>
    <clipPath id="clippath">
      <path class="cls-8" d="m1031.91,370.3c0,74.83-56.5,123.24-126.45,123.24-78.19,0-137.29-58.34-137.29-128.58s59.25-129.35,135.61-129.35c31.31.46,67.5,13.74,87.81,32.53l-36.19,49.63c-13.74-12.83-33.44-21.07-51.62-21.07-36.65,0-68.87,30.08-68.87,68.11,0,34.51,27.64,68.11,73.15,68.11,29.78,0,51.01-14.36,51.92-37.87h-56.35v-48.72h126.29c1.22,8.25,1.99,16.19,1.99,23.98Z"/>
    </clipPath>
    <clipPath id="clippath-1">
      <path class="cls-8" d="m1040.99,364.96c0-73.91,58.64-129.96,135.15-129.96s135.15,56.05,135.15,129.96-58.64,129.04-135.3,129.04-135-55.74-135-129.04Zm204.18-.46c0-38.03-29.93-67.35-69.03-67.35s-69.02,29.32-69.02,67.35,29.93,67.04,69.02,67.04,69.03-29.17,69.03-67.04Z"/>
    </clipPath>
  </defs>
  <path class="cls-7" d="m238.27,302.65h-58.95v185.09h-65.51v-185.09h-59.1v-61.09h183.56v61.09Z"/>
  <path class="cls-7" d="m380.95,442.41c-6.27,3.14-9.78,3.79-11.62,3.79-1.01,0-1.59-.24-2.11-1.59-.58-1.52-1.27-4.61-1.27-10.73v-56.72c0-15.57-5.9-27.99-17.54-36.92-11.34-8.69-28.24-13.1-50.23-13.1-8.55,0-17.11.75-25.46,2.22-8.37,1.48-16.52,3.75-24.23,6.76-7.76,3.04-15.07,6.99-21.73,11.77l-1.54,1.11v50.5l6.27-6.12c7.78-7.6,16.47-13.89,25.81-18.7,9.15-4.71,19.21-7.09,29.91-7.09,8.2,0,13.64,1.56,15.75,4.51,2.12,2.97,3.32,7.11,3.59,12.33-1.14.54-2.24,1-3.3,1.39-1.77.65-4.52,1.58-8.16,2.77-3.7,1.2-9.15,2.96-16.36,5.26-12.81,4.08-23.27,8.08-31.09,11.89-8.18,3.99-14.81,9.22-19.7,15.57-5.06,6.55-7.63,14.86-7.63,24.7,0,6.49,1.45,12.87,4.32,18.96,2.97,6.31,8.14,11.58,15.39,15.65,7.12,4,16.44,6.03,27.71,6.03s21.03-1.58,28.3-4.7c5.58-2.4,10.83-5.34,15.64-8.78,1.6,3,3.69,5.67,6.27,7.99,4.11,3.7,10.77,5.49,20.37,5.49s17.49-.97,24.24-2.88c6.53-1.85,13.74-4.32,21.41-7.33l2.34-.92v-35.77l-5.35,2.67Zm-74.34-26.8v27.39c-3.01,2.22-5.99,4.15-8.87,5.77-2.98,1.67-5.85,2.48-8.8,2.48s-5.24-.96-7.39-2.93c-2.06-1.88-3.06-4.67-3.06-8.53,0-5.6,2.27-9.93,6.95-13.21,4.62-3.25,11.73-6.94,21.17-10.97Z"/>
  <polygon class="cls-7" points="520.54 403.19 579.08 329.75 512.61 329.75 487.15 366.86 461.96 329.75 388.53 329.75 449.4 408.18 389.61 484.04 456.05 484.04 482.38 445.21 508.85 484.04 582.35 484.04 520.54 403.19"/>
  <path class="cls-7" d="m756.12,442.41c-6.27,3.14-9.78,3.8-11.62,3.8-1.01,0-1.59-.24-2.1-1.59-.58-1.52-1.27-4.61-1.27-10.73v-56.72c0-15.57-5.9-27.99-17.54-36.92-11.34-8.69-28.24-13.1-50.23-13.1-8.55,0-17.11.75-25.46,2.22-8.37,1.48-16.52,3.75-24.23,6.76-7.76,3.04-15.07,6.99-21.73,11.77l-1.54,1.11v50.5l6.27-6.12c7.78-7.6,16.47-13.89,25.81-18.7,9.15-4.71,19.21-7.09,29.91-7.09,8.2,0,13.65,1.56,15.76,4.51,2.12,2.97,3.32,7.11,3.59,12.33-1.14.54-2.24,1-3.3,1.39-1.78.66-4.53,1.59-8.16,2.77-3.7,1.2-9.15,2.96-16.36,5.26-12.81,4.08-23.27,8.08-31.09,11.89-8.18,3.99-14.81,9.22-19.7,15.57-5.06,6.55-7.63,14.86-7.63,24.7,0,6.49,1.45,12.87,4.32,18.96,2.97,6.31,8.14,11.58,15.39,15.65,7.12,4,16.44,6.03,27.71,6.03s21.03-1.58,28.3-4.7c5.58-2.4,10.83-5.34,15.64-8.78,1.6,3,3.69,5.67,6.27,7.99,4.11,3.7,10.77,5.49,20.37,5.49s17.49-.97,24.24-2.88c6.53-1.85,13.73-4.32,21.41-7.33l2.35-.92v-35.77l-5.35,2.67Zm-74.34-26.8v27.39c-3.01,2.22-5.99,4.15-8.87,5.77-2.98,1.67-5.85,2.48-8.8,2.48s-5.24-.96-7.39-2.93c-2.06-1.88-3.06-4.67-3.06-8.53,0-5.6,2.27-9.93,6.95-13.21,4.63-3.25,11.73-6.94,21.17-10.97Z"/>
  <g>
    <path class="cls-8" d="m1031.91,370.3c0,74.83-56.5,123.24-126.45,123.24-78.19,0-137.29-58.34-137.29-128.58s59.25-129.35,135.61-129.35c31.31.46,67.5,13.74,87.81,32.53l-36.19,49.63c-13.74-12.83-33.44-21.07-51.62-21.07-36.65,0-68.87,30.08-68.87,68.11,0,34.51,27.64,68.11,73.15,68.11,29.78,0,51.01-14.36,51.92-37.87h-56.35v-48.72h126.29c1.22,8.25,1.99,16.19,1.99,23.98Z"/>
    <g class="cls-3">
      <g>
        <g>
          <polyline class="cls-2" points="828.02 248.5 876.37 295.1 876.37 248.5"/>
          <polyline class="cls-2" points="973.06 434.9 924.72 388.3 1021.41 434.9"/>
          <polyline class="cls-2" points="828.02 388.3 779.67 434.9 779.67 388.3 828.02 434.9 828.02 388.3 876.37 434.9 779.67 388.3 924.72 434.9"/>
          <polygon class="cls-4" points="925 388.3 973.21 341.7 973.21 388.3 1021.41 341.7 1021.41 388.3 925 341.7 925 388.3"/>
          <line class="cls-4" x1="973.21" y1="388.3" x2="925" y2="341.7"/>
          <line class="cls-4" x1="925" y1="388.3" x2="1021.41" y2="341.7"/>
          <line class="cls-2" x1="924.72" y1="481.5" x2="973.06" y2="434.9"/>
          <polyline class="cls-2" points="924.72 434.9 924.72 481.5 876.37 434.9 828.02 481.5 924.72 434.9 876.37 481.5 828.02 434.9 828.02 481.5 779.67 434.9 876.37 481.5 876.37 434.9"/>
          <polyline class="cls-2" points="973.06 341.7 1021.41 388.3 1025.23 434.9 973.06 388.3 973.06 434.9"/>
          <polyline class="cls-2" points="973.06 295.1 828.02 248.5 924.72 295.1"/>
          <polyline class="cls-2" points="779.67 341.7 876.37 295.1 828.02 341.7 828.02 388.3 779.67 341.7 779.67 388.3 828.02 341.7 828.02 295.1 779.67 341.7 828.02 248.5 828.02 295.1 876.37 248.5 924.72 295.1 924.72 248.5 973.06 295.1 876.37 248.5"/>
          <polyline class="cls-2" points="876.37 295.1 924.72 248.5 828.02 295.1"/>
          <polyline class="cls-2" points="779.67 434.9 924.72 481.5 828.02 434.9"/>
          <line class="cls-2" x1="1025.23" y1="434.9" x2="924.72" y2="481.5"/>
          <polygon class="cls-2" points="828.02 481.5 973.06 434.9 876.37 481.5 1021.41 434.9 828.02 481.5"/>
          <polyline class="cls-2" points="1025.23 434.9 1021.41 388.3 973.06 434.9"/>
          <polyline class="cls-2" points="973.06 388.3 924.72 434.9 1021.41 388.3"/>
        </g>
        <g>
          <rect class="cls-5" x="913.22" y="237" width="23" height="23"/>
          <rect class="cls-5" x="864.87" y="237" width="23" height="23"/>
          <rect class="cls-5" x="816.52" y="237" width="23" height="23"/>
          <rect class="cls-5" x="961.56" y="283.6" width="23" height="23"/>
          <rect class="cls-5" x="913.22" y="283.6" width="23" height="23"/>
          <rect class="cls-5" x="864.87" y="283.6" width="23" height="23"/>
          <rect class="cls-5" x="816.52" y="283.6" width="23" height="23"/>
          <rect class="cls-5" x="1009.91" y="330.2" width="23" height="23"/>
          <rect class="cls-5" x="961.56" y="330.2" width="23" height="23"/>
          <rect class="cls-5" x="913.22" y="330.2" width="23" height="23"/>
          <rect class="cls-5" x="816.52" y="330.2" width="23" height="23"/>
          <rect class="cls-5" x="768.17" y="330.2" width="23" height="23"/>
          <rect class="cls-5" x="1009.91" y="376.8" width="23" height="23"/>
          <rect class="cls-5" x="961.56" y="376.8" width="23" height="23"/>
          <rect class="cls-5" x="913.22" y="376.8" width="23" height="23"/>
          <rect class="cls-5" x="816.52" y="376.8" width="23" height="23"/>
          <rect class="cls-5" x="768.17" y="376.8" width="23" height="23"/>
          <rect class="cls-5" x="1009.91" y="423.4" width="23" height="23"/>
          <rect class="cls-5" x="961.56" y="423.4" width="23" height="23"/>
          <rect class="cls-5" x="913.22" y="423.4" width="23" height="23"/>
          <rect class="cls-5" x="864.87" y="423.4" width="23" height="23"/>
          <rect class="cls-5" x="816.52" y="423.4" width="23" height="23"/>
          <rect class="cls-5" x="768.17" y="423.4" width="23" height="23"/>
          <rect class="cls-5" x="913.22" y="470" width="23" height="23"/>
          <rect class="cls-5" x="864.87" y="470" width="23" height="23"/>
          <rect class="cls-5" x="816.52" y="470" width="23" height="23"/>
        </g>
      </g>
    </g>
  </g>
  <g>
    <path class="cls-8" d="m1040.99,364.96c0-73.91,58.64-129.96,135.15-129.96s135.15,56.05,135.15,129.96-58.64,129.04-135.3,129.04-135-55.74-135-129.04Zm204.18-.46c0-38.03-29.93-67.35-69.03-67.35s-69.02,29.32-69.02,67.35,29.93,67.04,69.02,67.04,69.03-29.17,69.03-67.04Z"/>
    <g class="cls-1">
      <g>
        <g>
          <polygon class="cls-2" points="1118.11 295.1 1118.11 248.5 1069.76 295.1 1166.46 248.5 1118.11 295.1"/>
          <polygon class="cls-2" points="1214.8 295.1 1118.11 248.5 1166.46 295.1 1166.46 248.5 1214.8 295.1"/>
          <polyline class="cls-2" points="1166.46 248.5 1263.15 295.1 1118.11 248.5"/>
          <polygon class="cls-2" points="1263.15 295.1 1263.15 248.5 1214.8 295.1 1214.8 248.5 1263.15 295.1"/>
          <polygon class="cls-2" points="1118.11 295.1 1259.66 248.5 1166.46 295.1 1214.8 248.5 1118.11 295.1"/>
          <polyline class="cls-2" points="1259.66 248.5 1069.76 295.1 1214.8 248.5"/>
          <polygon class="cls-2" points="1069.76 341.7 1118.11 295.1 1118.11 341.7 1069.76 295.1 1069.76 341.7"/>
          <polygon class="cls-2" points="1311.5 341.7 1214.8 295.1 1263.15 341.7 1263.15 295.1 1311.5 341.7"/>
          <polygon class="cls-2" points="1311.5 388.3 1311.5 341.7 1263.15 388.3 1263.15 341.7 1311.5 388.3"/>
          <polyline class="cls-2" points="1311.5 388.3 1166.46 434.9 1263.15 388.3"/>
          <polyline class="cls-2" points="1263.15 341.7 1166.46 295.1 1311.5 341.7"/>
          <polyline class="cls-2" points="1069.76 295.1 1118.11 388.3 1069.76 341.7 1069.76 388.3 1118.11 341.7"/>
          <polygon class="cls-2" points="1118.11 388.3 1069.76 434.9 1069.76 388.3 1118.11 434.9 1118.11 388.3"/>
          <polyline class="cls-2" points="1069.76 388.3 1166.46 434.9 1118.11 481.5 1263.15 434.9"/>
          <polygon class="cls-2" points="1263.15 434.9 1263.15 388.3 1214.8 434.9 1311.5 388.3 1263.15 438.5 1214.8 481.5 1166.46 434.9 1166.46 481.5 1263.15 434.9"/>
          <polyline class="cls-2" points="1214.8 434.9 1214.8 481.5 1118.11 434.9"/>
          <polygon class="cls-2" points="1166.46 481.5 1210.25 434.9 1118.11 481.5 1118.11 434.9 1166.46 481.5"/>
          <polyline class="cls-2" points="1118.11 481.5 1069.76 434.9 1166.46 481.5"/>
          <line class="cls-2" x1="1214.8" y1="481.5" x2="1069.76" y2="434.9"/>
        </g>
        <g>
          <rect class="cls-5" x="1251.65" y="237" width="23" height="23"/>
          <rect class="cls-5" x="1203.3" y="237" width="23" height="23"/>
          <rect class="cls-5" x="1154.96" y="237" width="23" height="23"/>
          <rect class="cls-5" x="1106.61" y="237" width="23" height="23"/>
          <rect class="cls-5" x="1251.65" y="283.6" width="23" height="23"/>
          <rect class="cls-5" x="1203.3" y="283.6" width="23" height="23"/>
          <rect class="cls-5" x="1154.96" y="283.6" width="23" height="23"/>
          <rect class="cls-5" x="1106.61" y="283.6" width="23" height="23"/>
          <rect class="cls-5" x="1058.26" y="283.6" width="23" height="23"/>
          <rect class="cls-5" x="1251.65" y="330.2" width="23" height="23"/>
          <rect class="cls-5" x="1106.61" y="330.2" width="23" height="23"/>
          <rect class="cls-5" x="1058.26" y="330.2" width="23" height="23"/>
          <rect class="cls-5" x="1300" y="330.2" width="23" height="23"/>
          <rect class="cls-5" x="1251.65" y="376.8" width="23" height="23"/>
          <rect class="cls-5" x="1106.61" y="376.8" width="23" height="23"/>
          <rect class="cls-5" x="1058.26" y="376.8" width="23" height="23"/>
          <rect class="cls-5" x="1300" y="376.8" width="23" height="23"/>
          <rect class="cls-5" x="1251.65" y="423.4" width="23" height="23"/>
          <rect class="cls-5" x="1203.3" y="423.4" width="23" height="23"/>
          <rect class="cls-5" x="1154.96" y="423.4" width="23" height="23"/>
          <rect class="cls-5" x="1106.61" y="423.4" width="23" height="23"/>
          <rect class="cls-5" x="1058.26" y="423.4" width="23" height="23"/>
          <rect class="cls-5" x="1203.3" y="470" width="23" height="23"/>
          <rect class="cls-5" x="1154.96" y="470" width="23" height="23"/>
          <rect class="cls-5" x="1106.61" y="470" width="23" height="23"/>
        </g>
      </g>
    </g>
  </g>
  <g>
    <rect class="cls-6" x="913.22" y="237" width="23" height="23"/>
    <rect class="cls-6" x="864.87" y="237" width="23" height="23"/>
    <rect class="cls-6" x="816.52" y="237" width="23" height="23"/>
    <rect class="cls-6" x="1009.91" y="330.2" width="23" height="23"/>
    <rect class="cls-6" x="961.56" y="330.2" width="23" height="23"/>
    <rect class="cls-6" x="913.22" y="330.2" width="23" height="23"/>
    <rect class="cls-6" x="768.17" y="330.2" width="23" height="23"/>
    <rect class="cls-6" x="913.22" y="470" width="23" height="23"/>
    <rect class="cls-6" x="864.87" y="470" width="23" height="23"/>
  </g>
  <g>
    <rect class="cls-6" x="1203.3" y="237" width="23" height="23"/>
    <rect class="cls-6" x="1106.61" y="237" width="23" height="23"/>
    <rect class="cls-6" x="1058.26" y="423.4" width="23" height="23"/>
    <rect class="cls-6" x="1203" y="423" width="23" height="23"/>
    <rect class="cls-6" x="1106.61" y="470" width="23" height="23"/>
  </g>
  <path class="cls-7" d="m1202.58,333.89c.61-.61.51-1.66.16-2.36-.69-1.38-.93-2.33-2.04-3.39-.96-.92-2.64-1.29-3.77-2.04.04,0-.19-.3-.36-.38-.34-.34-.7-.62-1.08-.79-.88-.41-3.51-.47-3.54-.45-.8.4-2.36,1.37-2.48,1.4-.12.17-.26.33-.4.48,0,0-1.11,1.32-1.97,2.25-1.59,1.71-4.42,1.89-6.57,2.14-4.31.5-7.9,3.09-10.4,6.53-2.09,1.73-3.98,3.79-5.65,5.37-2.45,2.31-5.17,4.31-7.55,6.74-2.54,2.59-5.65,4.87-7.8,7.81-1.8,2.47-3.21,4.43-3.82,7.49-.33,1.66-1.05,2.99.49,4.13,2.46,1.81,4.74,3.82,7.35,5.44.39.24.85.47,1.35.69-1.3.67-2.52,1.54-3.58,2.42-3.09,2.55-4.47,6.41-7.76,8.66-1.59,1.09-4.63,1.74-4.56,4.27.02.7-.14,1.72.44,2.27.65.62,1.6,1.13,2.12,1.82.39.52.6,1.21.93,1.77.64,1.09,1.84,1.9,2.72,2.78.78.78,1.55,2,2.69,2.31,1.91.51,4.35.53,6.03-.75,1.31-.99-1.27-3.17-1.87-3.71-1.21-1.09-2.83-1.82-4.1-2.85-1.36-1.09-.9-3.08-.29-4.92.22,0,.43,0,.63-.03,1.09-.14,2.32-.89,3.29-1.3,2.03-.85,4.14-1.53,6.08-2.57,2.76-1.49,5.67-2.8,8.47-4.28-.25,1.29-.42,2.57-.64,3.63-.6,2.98,1.8,5.09,1.79,7.97,0,1.89-1.31,5.66.13,7.24.81.9,1.63.9,2.8,1.11,1.31.24,2.53.82,3.82,1.1,2.58.56,4.99,2.32,7.72,1.94.68-.09,1.62-1.01,2.3-1.29.42-.17,1.82-.82,1.91-1.44.23-1.63-3.42-1.84-4.55-2.2-2.08-.68-3.89-1.65-5.64-2.97-.47-.36-.89-.76-1.29-1.19.07-1.22.34-2.48.49-3.2.37-1.8.5-3.62.83-5.42.21-1.14.23-2.24.23-3.39,0-2.26.25-4.31.62-6.54.38-2.3.12-4.69-1.41-6.5-.96-1.14-2.16-2.21-3.37-3.08-.06-.04-.12-.09-.18-.13,1.22-.57,2.38-1.32,3.57-2.35.34-.3.67-.62.99-.96.88,2.05,2.15,4,2.85,6.06.35,1.03.71,2.01,1.12,2.95-.16,2.02-.36,4.02-.41,6.05-.06,2.07.57,4.15.71,6.21.06.95.04,1.85.12,2.73-.8,1.36-1.47,2.47-1.48,4.31,0,1.11-.02,2.83,1.26,3.21.06.02.12,0,.17-.04.6-.59,1.61-2.42,2.59.39.17.49.27,1.04-.3.89-.43-.11-1.15-.04-1.58.12-.07.03-.1.07-.11.14-.16,1.52,1.29,1.55,2.4,1.43.62-.06,1.24-.13,1.85-.27.62-.14.74-1.03,1.28-1.15,3.33-.73,3.25-4.49,1.49-6.74.3-.9.39-1.84.39-3.01,0-.91-.14-1.81-.14-2.72.84,1.89,1.92,3.69,3.15,5.28-.1.48-.18.97-.23,1.47-.19,2.06.6,4.17.59,6.25,0,.71-.12,1.67.77,1.92.21.06.71-.08.95-.13.78-.15,1.68.47,2.47.23.79-.24.59-.11,1.15-.74,1.15-1.29.8-.56,1.99-1.01,1.1-.42,1.37-.96,1.45-2.13.14-2.22-1.59-4.44-3.34-6.07-.03-2.97.13-6.23-1.16-8.61-.69-1.28-1.35-2.46-2.27-3.52.43-3.68.08-7.52-1.56-10.69-1.41-2.72-2.12-5.99-2.92-8.93-.3-1.11-.74-2.3-1.21-3.35.37-.71.78-1.39,1.26-2.01,1.09-1.4,2.48-2.53,3.69-3.82.85-.91,2.06-1.83,3.07-2.85.66.08,1.31.06,2.04,0,.93-.08,1.6-.87,1.85-1.75,1.2.02,2.5-.72,2.66-2.04.09-.73-.19-1.87-.77-2.58.12-.26.18-.55.1-.81-.22-.75-.75-1.34-1.24-1.95.89-.67,1.21-1.22,2.01-2.02Z"/>
</svg>